<svg width="44" height="40" viewBox="0 0 44 40" fill="none" xmlns="http://www.w3.org/2000/svg">
<path d="M43.941 39.4565H42.5687V38.0652H43.941V39.4565Z" fill="#ECD979"/>
<path d="M42.5687 39.4565H41.1964V38.0652H42.5687V39.4565Z" fill="#ECD979"/>
<path d="M37.0794 39.4565H35.7071V38.0652H37.0794V39.4565Z" fill="#ECD979"/>
<path d="M35.7071 39.4565H34.3347V38.0652H35.7071V39.4565Z" fill="#ECD979"/>
<path d="M34.3348 39.4565H32.9624V38.0652H34.3348V39.4565Z" fill="#ECD979"/>
<path d="M26.1008 39.4565H24.7285V38.0652H26.1008V39.4565Z" fill="#ECD979"/>
<path d="M17.8673 39.4565H16.4949V38.0652H17.8673V39.4565Z" fill="#ECD979"/>
<path d="M9.63334 39.4565H8.26102V38.0652H9.63334V39.4565Z" fill="#ECD979"/>
<path d="M8.26102 39.4565H6.8887V38.0652H8.26102V39.4565Z" fill="#ECD979"/>
<path d="M6.88871 39.4565H5.51639V38.0652H6.88871V39.4565Z" fill="#ECD979"/>
<path d="M1.39942 39.4565H0.0270996V38.0652H1.39942V39.4565Z" fill="#ECD979"/>
<path d="M43.941 38.0652H42.5687V36.6739H43.941V38.0652Z" fill="#ECD979"/>
<path d="M38.4517 38.0652H37.0794V36.6739H38.4517V38.0652Z" fill="#ECD979"/>
<path d="M37.0794 38.0652H35.7071V36.6739H37.0794V38.0652Z" fill="#ECD979"/>
<path d="M35.7071 38.0652H34.3347V36.6739H35.7071V38.0652Z" fill="#ECD979"/>
<path d="M26.1008 38.0652H24.7285V36.6739H26.1008V38.0652Z" fill="#ECD979"/>
<path d="M24.7285 38.0652H23.3562V36.6739H24.7285V38.0652Z" fill="#ECD979"/>
<path d="M19.2396 38.0652H17.8673V36.6739H19.2396V38.0652Z" fill="#ECD979"/>
<path d="M17.8673 38.0652H16.4949V36.6739H17.8673V38.0652Z" fill="#ECD979"/>
<path d="M8.26102 38.0652H6.8887V36.6739H8.26102V38.0652Z" fill="#ECD979"/>
<path d="M6.88871 38.0652H5.51639V36.6739H6.88871V38.0652Z" fill="#ECD979"/>
<path d="M5.51638 38.0652H4.14406V36.6739H5.51638V38.0652Z" fill="#ECD979"/>
<path d="M39.824 36.6739H38.4517V35.2826H39.824V36.6739Z" fill="#ECD979"/>
<path d="M38.4517 36.6739H37.0794V35.2826H38.4517V36.6739Z" fill="#ECD979"/>
<path d="M37.0794 36.6739H35.7071V35.2826H37.0794V36.6739Z" fill="#ECD979"/>
<path d="M26.1008 36.6739H24.7285V35.2826H26.1008V36.6739Z" fill="#ECD979"/>
<path d="M24.7285 36.6739H23.3562V35.2826H24.7285V36.6739Z" fill="#ECD979"/>
<path d="M23.3562 36.6739H21.9839V35.2826H23.3562V36.6739Z" fill="#ECD979"/>
<path d="M20.6119 36.6739H19.2396V35.2826H20.6119V36.6739Z" fill="#ECD979"/>
<path d="M19.2396 36.6739H17.8673V35.2826H19.2396V36.6739Z" fill="#ECD979"/>
<path d="M17.8673 36.6739H16.4949V35.2826H17.8673V36.6739Z" fill="#ECD979"/>
<path d="M6.88871 36.6739H5.51639V35.2826H6.88871V36.6739Z" fill="#ECD979"/>
<path d="M5.51638 36.6739H4.14406V35.2826H5.51638V36.6739Z" fill="#ECD979"/>
<path d="M4.14406 36.6739H2.77174V35.2826H4.14406V36.6739Z" fill="#ECD979"/>
<path d="M41.1964 35.2826H39.824V33.8913H41.1964V35.2826Z" fill="#ECD979"/>
<path d="M39.824 35.2826H38.4517V33.8913H39.824V35.2826Z" fill="#ECD979"/>
<path d="M38.4517 35.2826H37.0794V33.8913H38.4517V35.2826Z" fill="#ECD979"/>
<path d="M31.5901 35.2826H30.2178V33.8913H31.5901V35.2826Z" fill="#ECD979"/>
<path d="M30.2178 35.2826H28.8455V33.8913H30.2178V35.2826Z" fill="#ECD979"/>
<path d="M28.8455 35.2826H27.4732V33.8913H28.8455V35.2826Z" fill="#ECD979"/>
<path d="M24.7285 35.2826H23.3562V33.8913H24.7285V35.2826Z" fill="#ECD979"/>
<path d="M23.3562 35.2826H21.9839V33.8913H23.3562V35.2826Z" fill="#ECD979"/>
<path d="M20.6119 35.2826H19.2396V33.8913H20.6119V35.2826Z" fill="#ECD979"/>
<path d="M19.2396 35.2826H17.8673V33.8913H19.2396V35.2826Z" fill="#ECD979"/>
<path d="M15.1226 35.2826H13.7503V33.8913H15.1226V35.2826Z" fill="#ECD979"/>
<path d="M13.7503 35.2826H12.378V33.8913H13.7503V35.2826Z" fill="#ECD979"/>
<path d="M12.378 35.2826H11.0057V33.8913H12.378V35.2826Z" fill="#ECD979"/>
<path d="M5.51638 35.2826H4.14406V33.8913H5.51638V35.2826Z" fill="#ECD979"/>
<path d="M4.14406 35.2826H2.77174V33.8913H4.14406V35.2826Z" fill="#ECD979"/>
<path d="M2.77175 35.2826H1.39943V33.8913H2.77175V35.2826Z" fill="#ECD979"/>
<path d="M42.5687 33.8913H41.1964V32.5H42.5687V33.8913Z" fill="#ECD979"/>
<path d="M41.1964 33.8913H39.824V32.5H41.1964V33.8913Z" fill="#ECD979"/>
<path d="M39.824 33.8913H38.4517V32.5H39.824V33.8913Z" fill="#ECD979"/>
<path d="M30.2178 33.8913H28.8455V32.5H30.2178V33.8913Z" fill="#ECD979"/>
<path d="M28.8455 33.8913H27.4732V32.5H28.8455V33.8913Z" fill="#ECD979"/>
<path d="M27.4731 33.8913H26.1008V32.5H27.4731V33.8913Z" fill="#ECD979"/>
<path d="M23.3562 33.8913H21.9839V32.5H23.3562V33.8913Z" fill="#ECD979"/>
<path d="M20.6119 33.8913H19.2396V32.5H20.6119V33.8913Z" fill="#ECD979"/>
<path d="M16.4949 33.8913H15.1226V32.5H16.4949V33.8913Z" fill="#ECD979"/>
<path d="M15.1226 33.8913H13.7503V32.5H15.1226V33.8913Z" fill="#ECD979"/>
<path d="M13.7503 33.8913H12.378V32.5H13.7503V33.8913Z" fill="#ECD979"/>
<path d="M4.14406 33.8913H2.77174V32.5H4.14406V33.8913Z" fill="#ECD979"/>
<path d="M2.77175 33.8913H1.39943V32.5H2.77175V33.8913Z" fill="#ECD979"/>
<path d="M1.39942 33.8913H0.0270996V32.5H1.39942V33.8913Z" fill="#ECD979"/>
<path d="M42.5687 32.5H41.1964V31.1087H42.5687V32.5Z" fill="#ECD979"/>
<path d="M41.1964 32.5H39.824V31.1087H41.1964V32.5Z" fill="#ECD979"/>
<path d="M28.8455 32.5H27.4732V31.1087H28.8455V32.5Z" fill="#ECD979"/>
<path d="M27.4731 32.5H26.1008V31.1087H27.4731V32.5Z" fill="#ECD979"/>
<path d="M26.1008 32.5H24.7285V31.1087H26.1008V32.5Z" fill="#ECD979"/>
<path d="M17.8673 32.5H16.4949V31.1087H17.8673V32.5Z" fill="#ECD979"/>
<path d="M16.4949 32.5H15.1226V31.1087H16.4949V32.5Z" fill="#ECD979"/>
<path d="M15.1226 32.5H13.7503V31.1087H15.1226V32.5Z" fill="#ECD979"/>
<path d="M2.77175 32.5H1.39943V31.1087H2.77175V32.5Z" fill="#ECD979"/>
<path d="M1.39942 32.5H0.0270996V31.1087H1.39942V32.5Z" fill="#ECD979"/>
<path d="M42.5687 31.1087H41.1964V29.7174H42.5687V31.1087Z" fill="#ECD979"/>
<path d="M35.7071 31.1087H34.3347V29.7174H35.7071V31.1087Z" fill="#ECD979"/>
<path d="M23.3562 31.1087H21.9839V29.7174H23.3562V31.1087Z" fill="#ECD979"/>
<path d="M20.6119 31.1087H19.2396V29.7174H20.6119V31.1087Z" fill="#ECD979"/>
<path d="M8.26102 31.1087H6.8887V29.7174H8.26102V31.1087Z" fill="#ECD979"/>
<path d="M1.39942 31.1087H0.0270996V29.7174H1.39942V31.1087Z" fill="#ECD979"/>
<path d="M35.7071 29.7174H34.3347V28.3261H35.7071V29.7174Z" fill="#ECD979"/>
<path d="M34.3348 29.7174H32.9624V28.3261H34.3348V29.7174Z" fill="#ECD979"/>
<path d="M24.7285 29.7174H23.3562V28.3261H24.7285V29.7174Z" fill="#ECD979"/>
<path d="M23.3562 29.7174H21.9839V28.3261H23.3562V29.7174Z" fill="#ECD979"/>
<path d="M20.6119 29.7174H19.2396V28.3261H20.6119V29.7174Z" fill="#ECD979"/>
<path d="M19.2396 29.7174H17.8673V28.3261H19.2396V29.7174Z" fill="#ECD979"/>
<path d="M9.63334 29.7174H8.26102V28.3261H9.63334V29.7174Z" fill="#ECD979"/>
<path d="M8.26102 29.7174H6.8887V28.3261H8.26102V29.7174Z" fill="#ECD979"/>
<path d="M35.7071 28.3261H34.3347V26.9348H35.7071V28.3261Z" fill="#ECD979"/>
<path d="M34.3348 28.3261H32.9624V26.9348H34.3348V28.3261Z" fill="#ECD979"/>
<path d="M32.9624 28.3261H31.5901V26.9348H32.9624V28.3261Z" fill="#ECD979"/>
<path d="M26.1008 28.3261H24.7285V26.9348H26.1008V28.3261Z" fill="#ECD979"/>
<path d="M24.7285 28.3261H23.3562V26.9348H24.7285V28.3261Z" fill="#ECD979"/>
<path d="M19.2396 28.3261H17.8673V26.9348H19.2396V28.3261Z" fill="#ECD979"/>
<path d="M17.8673 28.3261H16.4949V26.9348H17.8673V28.3261Z" fill="#ECD979"/>
<path d="M11.0057 28.3261H9.63335V26.9348H11.0057V28.3261Z" fill="#ECD979"/>
<path d="M9.63334 28.3261H8.26102V26.9348H9.63334V28.3261Z" fill="#ECD979"/>
<path d="M8.26102 28.3261H6.8887V26.9348H8.26102V28.3261Z" fill="#ECD979"/>
<path d="M34.3348 26.9348H32.9624V25.5435H34.3348V26.9348Z" fill="#ECD979"/>
<path d="M32.9624 26.9348H31.5901V25.5435H32.9624V26.9348Z" fill="#ECD979"/>
<path d="M27.4731 26.9348H26.1008V25.5435H27.4731V26.9348Z" fill="#ECD979"/>
<path d="M26.1008 26.9348H24.7285V25.5435H26.1008V26.9348Z" fill="#ECD979"/>
<path d="M17.8673 26.9348H16.4949V25.5435H17.8673V26.9348Z" fill="#ECD979"/>
<path d="M16.4949 26.9348H15.1226V25.5435H16.4949V26.9348Z" fill="#ECD979"/>
<path d="M11.0057 26.9348H9.63335V25.5435H11.0057V26.9348Z" fill="#ECD979"/>
<path d="M9.63334 26.9348H8.26102V25.5435H9.63334V26.9348Z" fill="#ECD979"/>
<path d="M39.824 25.5435H38.4517V24.1522H39.824V25.5435Z" fill="#ECD979"/>
<path d="M38.4517 25.5435H37.0794V24.1522H38.4517V25.5435Z" fill="#ECD979"/>
<path d="M37.0794 25.5435H35.7071V24.1522H37.0794V25.5435Z" fill="#ECD979"/>
<path d="M32.9624 25.5435H31.5901V24.1522H32.9624V25.5435Z" fill="#ECD979"/>
<path d="M28.8455 25.5435H27.4732V24.1522H28.8455V25.5435Z" fill="#ECD979"/>
<path d="M27.4731 25.5435H26.1008V24.1522H27.4731V25.5435Z" fill="#ECD979"/>
<path d="M16.4949 25.5435H15.1226V24.1522H16.4949V25.5435Z" fill="#ECD979"/>
<path d="M15.1226 25.5435H13.7503V24.1522H15.1226V25.5435Z" fill="#ECD979"/>
<path d="M11.0057 25.5435H9.63335V24.1522H11.0057V25.5435Z" fill="#ECD979"/>
<path d="M6.88871 25.5435H5.51639V24.1522H6.88871V25.5435Z" fill="#ECD979"/>
<path d="M5.51638 25.5435H4.14406V24.1522H5.51638V25.5435Z" fill="#ECD979"/>
<path d="M4.14406 25.5435H2.77174V24.1522H4.14406V25.5435Z" fill="#ECD979"/>
<path d="M43.941 24.1522H42.5687V22.7609H43.941V24.1522Z" fill="#ECD979"/>
<path d="M38.4517 24.1522H37.0794V22.7609H38.4517V24.1522Z" fill="#ECD979"/>
<path d="M37.0794 24.1522H35.7071V22.7609H37.0794V24.1522Z" fill="#ECD979"/>
<path d="M35.7071 24.1522H34.3347V22.7609H35.7071V24.1522Z" fill="#ECD979"/>
<path d="M30.2178 24.1522H28.8455V22.7609H30.2178V24.1522Z" fill="#ECD979"/>
<path d="M28.8455 24.1522H27.4732V22.7609H28.8455V24.1522Z" fill="#ECD979"/>
<path d="M15.1226 24.1522H13.7503V22.7609H15.1226V24.1522Z" fill="#ECD979"/>
<path d="M13.7503 24.1522H12.378V22.7609H13.7503V24.1522Z" fill="#ECD979"/>
<path d="M8.26102 24.1522H6.8887V22.7609H8.26102V24.1522Z" fill="#ECD979"/>
<path d="M6.88871 24.1522H5.51639V22.7609H6.88871V24.1522Z" fill="#ECD979"/>
<path d="M5.51638 24.1522H4.14406V22.7609H5.51638V24.1522Z" fill="#ECD979"/>
<path d="M43.941 22.7609H42.5687V21.3696H43.941V22.7609Z" fill="#ECD979"/>
<path d="M42.5687 22.7609H41.1964V21.3696H42.5687V22.7609Z" fill="#ECD979"/>
<path d="M37.0794 22.7609H35.7071V21.3696H37.0794V22.7609Z" fill="#ECD979"/>
<path d="M35.7071 22.7609H34.3347V21.3696H35.7071V22.7609Z" fill="#ECD979"/>
<path d="M34.3348 22.7609H32.9624V21.3696H34.3348V22.7609Z" fill="#ECD979"/>
<path d="M31.5901 22.7609H30.2178V21.3696H31.5901V22.7609Z" fill="#ECD979"/>
<path d="M30.2178 22.7609H28.8455V21.3696H30.2178V22.7609Z" fill="#ECD979"/>
<path d="M21.9842 22.7609H20.6119V21.3696H21.9842V22.7609Z" fill="#ECD979"/>
<path d="M13.7503 22.7609H12.378V21.3696H13.7503V22.7609Z" fill="#ECD979"/>
<path d="M12.378 22.7609H11.0057V21.3696H12.378V22.7609Z" fill="#ECD979"/>
<path d="M9.63334 22.7609H8.26102V21.3696H9.63334V22.7609Z" fill="#ECD979"/>
<path d="M8.26102 22.7609H6.8887V21.3696H8.26102V22.7609Z" fill="#ECD979"/>
<path d="M6.88871 22.7609H5.51639V21.3696H6.88871V22.7609Z" fill="#ECD979"/>
<path d="M1.37232 21.3696H0V19.9783H1.37232V21.3696Z" fill="#ECD979"/>
<path d="M2.77175 21.3696H1.39943V19.9783H2.77175V21.3696Z" fill="#ECD979"/>
<path d="M1.37232 22.7609H0V21.3696H1.37232V22.7609Z" fill="#ECD979"/>
<path d="M1.37232 19.9783H0V18.587H1.37232V19.9783Z" fill="#ECD979"/>
<path d="M43.941 21.3696H42.5687V19.9783H43.941V21.3696Z" fill="#ECD979"/>
<path d="M42.5687 21.3696H41.1964V19.9783H42.5687V21.3696Z" fill="#ECD979"/>
<path d="M41.1964 21.3696H39.824V19.9783H41.1964V21.3696Z" fill="#ECD979"/>
<path d="M23.3562 21.3696H21.9839V19.9783H23.3562V21.3696Z" fill="#ECD979"/>
<path d="M21.9842 21.3696H20.6119V19.9783H21.9842V21.3696Z" fill="#ECD979"/>
<path d="M20.6119 21.3696H19.2396V19.9783H20.6119V21.3696Z" fill="#ECD979"/>
<path d="M43.941 19.9783H42.5687V18.587H43.941V19.9783Z" fill="#ECD979"/>
<path d="M42.5687 19.9783H41.1964V18.587H42.5687V19.9783Z" fill="#ECD979"/>
<path d="M37.0794 19.9783H35.7071V18.587H37.0794V19.9783Z" fill="#ECD979"/>
<path d="M35.7071 19.9783H34.3347V18.587H35.7071V19.9783Z" fill="#ECD979"/>
<path d="M34.3348 19.9783H32.9624V18.587H34.3348V19.9783Z" fill="#ECD979"/>
<path d="M31.5901 19.9783H30.2178V18.587H31.5901V19.9783Z" fill="#ECD979"/>
<path d="M30.2178 19.9783H28.8455V18.587H30.2178V19.9783Z" fill="#ECD979"/>
<path d="M21.9842 19.9783H20.6119V18.587H21.9842V19.9783Z" fill="#ECD979"/>
<path d="M13.7503 19.9783H12.378V18.587H13.7503V19.9783Z" fill="#ECD979"/>
<path d="M12.378 19.9783H11.0057V18.587H12.378V19.9783Z" fill="#ECD979"/>
<path d="M9.63334 19.9783H8.26102V18.587H9.63334V19.9783Z" fill="#ECD979"/>
<path d="M8.26102 19.9783H6.8887V18.587H8.26102V19.9783Z" fill="#ECD979"/>
<path d="M6.88871 19.9783H5.51639V18.587H6.88871V19.9783Z" fill="#ECD979"/>
<path d="M43.941 18.5869H42.5687V17.1956H43.941V18.5869Z" fill="#ECD979"/>
<path d="M38.4517 18.5869H37.0794V17.1956H38.4517V18.5869Z" fill="#ECD979"/>
<path d="M37.0794 18.5869H35.7071V17.1956H37.0794V18.5869Z" fill="#ECD979"/>
<path d="M35.7071 18.5869H34.3347V17.1956H35.7071V18.5869Z" fill="#ECD979"/>
<path d="M30.2178 18.5869H28.8455V17.1956H30.2178V18.5869Z" fill="#ECD979"/>
<path d="M28.8455 18.5869H27.4732V17.1956H28.8455V18.5869Z" fill="#ECD979"/>
<path d="M15.1226 18.5869H13.7503V17.1956H15.1226V18.5869Z" fill="#ECD979"/>
<path d="M13.7503 18.5869H12.378V17.1956H13.7503V18.5869Z" fill="#ECD979"/>
<path d="M8.26102 18.5869H6.8887V17.1956H8.26102V18.5869Z" fill="#ECD979"/>
<path d="M6.88871 18.5869H5.51639V17.1956H6.88871V18.5869Z" fill="#ECD979"/>
<path d="M5.51638 18.5869H4.14406V17.1956H5.51638V18.5869Z" fill="#ECD979"/>
<path d="M39.824 17.1956H38.4517V15.8043H39.824V17.1956Z" fill="#ECD979"/>
<path d="M38.4517 17.1956H37.0794V15.8043H38.4517V17.1956Z" fill="#ECD979"/>
<path d="M37.0794 17.1956H35.7071V15.8043H37.0794V17.1956Z" fill="#ECD979"/>
<path d="M32.9624 17.1956H31.5901V15.8043H32.9624V17.1956Z" fill="#ECD979"/>
<path d="M28.8455 17.1956H27.4732V15.8043H28.8455V17.1956Z" fill="#ECD979"/>
<path d="M27.4731 17.1956H26.1008V15.8043H27.4731V17.1956Z" fill="#ECD979"/>
<path d="M16.4949 17.1956H15.1226V15.8043H16.4949V17.1956Z" fill="#ECD979"/>
<path d="M15.1226 17.1956H13.7503V15.8043H15.1226V17.1956Z" fill="#ECD979"/>
<path d="M11.0057 17.1956H9.63335V15.8043H11.0057V17.1956Z" fill="#ECD979"/>
<path d="M6.88871 17.1956H5.51639V15.8043H6.88871V17.1956Z" fill="#ECD979"/>
<path d="M5.51638 17.1956H4.14406V15.8043H5.51638V17.1956Z" fill="#ECD979"/>
<path d="M4.14406 17.1956H2.77174V15.8043H4.14406V17.1956Z" fill="#ECD979"/>
<path d="M34.3348 15.8044H32.9624V14.413H34.3348V15.8044Z" fill="#ECD979"/>
<path d="M32.9624 15.8044H31.5901V14.413H32.9624V15.8044Z" fill="#ECD979"/>
<path d="M27.4731 15.8044H26.1008V14.413H27.4731V15.8044Z" fill="#ECD979"/>
<path d="M26.1008 15.8044H24.7285V14.413H26.1008V15.8044Z" fill="#ECD979"/>
<path d="M17.8673 15.8044H16.4949V14.413H17.8673V15.8044Z" fill="#ECD979"/>
<path d="M16.4949 15.8044H15.1226V14.413H16.4949V15.8044Z" fill="#ECD979"/>
<path d="M11.0057 15.8044H9.63335V14.413H11.0057V15.8044Z" fill="#ECD979"/>
<path d="M9.63334 15.8044H8.26102V14.413H9.63334V15.8044Z" fill="#ECD979"/>
<path d="M35.7071 14.413H34.3347V13.0217H35.7071V14.413Z" fill="#ECD979"/>
<path d="M34.3348 14.413H32.9624V13.0217H34.3348V14.413Z" fill="#ECD979"/>
<path d="M32.9624 14.413H31.5901V13.0217H32.9624V14.413Z" fill="#ECD979"/>
<path d="M26.1008 14.413H24.7285V13.0217H26.1008V14.413Z" fill="#ECD979"/>
<path d="M24.7285 14.413H23.3562V13.0217H24.7285V14.413Z" fill="#ECD979"/>
<path d="M19.2396 14.413H17.8673V13.0217H19.2396V14.413Z" fill="#ECD979"/>
<path d="M17.8673 14.413H16.4949V13.0217H17.8673V14.413Z" fill="#ECD979"/>
<path d="M11.0057 14.413H9.63335V13.0217H11.0057V14.413Z" fill="#ECD979"/>
<path d="M9.63334 14.413H8.26102V13.0217H9.63334V14.413Z" fill="#ECD979"/>
<path d="M8.26102 14.413H6.8887V13.0217H8.26102V14.413Z" fill="#ECD979"/>
<path d="M35.7071 13.0217H34.3347V11.6304H35.7071V13.0217Z" fill="#ECD979"/>
<path d="M34.3348 13.0217H32.9624V11.6304H34.3348V13.0217Z" fill="#ECD979"/>
<path d="M24.7285 13.0217H23.3562V11.6304H24.7285V13.0217Z" fill="#ECD979"/>
<path d="M23.3562 13.0217H21.9839V11.6304H23.3562V13.0217Z" fill="#ECD979"/>
<path d="M20.6119 13.0217H19.2396V11.6304H20.6119V13.0217Z" fill="#ECD979"/>
<path d="M19.2396 13.0217H17.8673V11.6304H19.2396V13.0217Z" fill="#ECD979"/>
<path d="M9.63334 13.0217H8.26102V11.6304H9.63334V13.0217Z" fill="#ECD979"/>
<path d="M8.26102 13.0217H6.8887V11.6304H8.26102V13.0217Z" fill="#ECD979"/>
<path d="M35.7071 11.6304H34.3347V10.2391H35.7071V11.6304Z" fill="#ECD979"/>
<path d="M23.3562 11.6304H21.9839V10.2391H23.3562V11.6304Z" fill="#ECD979"/>
<path d="M20.6119 11.6304H19.2396V10.2391H20.6119V11.6304Z" fill="#ECD979"/>
<path d="M8.26102 11.6304H6.8887V10.2391H8.26102V11.6304Z" fill="#ECD979"/>
<path d="M42.5687 10.2391H41.1964V8.8478H42.5687V10.2391Z" fill="#ECD979"/>
<path d="M1.39942 10.2391H0.0270996V8.8478H1.39942V10.2391Z" fill="#ECD979"/>
<path d="M42.5687 8.84781H41.1964V7.4565H42.5687V8.84781Z" fill="#ECD979"/>
<path d="M41.1964 8.84781H39.824V7.4565H41.1964V8.84781Z" fill="#ECD979"/>
<path d="M28.8455 8.84781H27.4732V7.4565H28.8455V8.84781Z" fill="#ECD979"/>
<path d="M27.4731 8.84781H26.1008V7.4565H27.4731V8.84781Z" fill="#ECD979"/>
<path d="M26.1008 8.84781H24.7285V7.4565H26.1008V8.84781Z" fill="#ECD979"/>
<path d="M17.8673 8.84781H16.4949V7.4565H17.8673V8.84781Z" fill="#ECD979"/>
<path d="M16.4949 8.84781H15.1226V7.4565H16.4949V8.84781Z" fill="#ECD979"/>
<path d="M15.1226 8.84781H13.7503V7.4565H15.1226V8.84781Z" fill="#ECD979"/>
<path d="M2.77175 8.84781H1.39943V7.4565H2.77175V8.84781Z" fill="#ECD979"/>
<path d="M1.39942 8.84781H0.0270996V7.4565H1.39942V8.84781Z" fill="#ECD979"/>
<path d="M42.5687 7.45651H41.1964V6.06521H42.5687V7.45651Z" fill="#ECD979"/>
<path d="M41.1964 7.45651H39.824V6.06521H41.1964V7.45651Z" fill="#ECD979"/>
<path d="M39.824 7.45651H38.4517V6.06521H39.824V7.45651Z" fill="#ECD979"/>
<path d="M30.2178 7.45651H28.8455V6.06521H30.2178V7.45651Z" fill="#ECD979"/>
<path d="M28.8455 7.45651H27.4732V6.06521H28.8455V7.45651Z" fill="#ECD979"/>
<path d="M27.4731 7.45651H26.1008V6.06521H27.4731V7.45651Z" fill="#ECD979"/>
<path d="M23.3562 7.45651H21.9839V6.06521H23.3562V7.45651Z" fill="#ECD979"/>
<path d="M20.6119 7.45651H19.2396V6.06521H20.6119V7.45651Z" fill="#ECD979"/>
<path d="M16.4949 7.45651H15.1226V6.06521H16.4949V7.45651Z" fill="#ECD979"/>
<path d="M15.1226 7.45651H13.7503V6.06521H15.1226V7.45651Z" fill="#ECD979"/>
<path d="M13.7503 7.45651H12.378V6.06521H13.7503V7.45651Z" fill="#ECD979"/>
<path d="M4.14406 7.45651H2.77174V6.06521H4.14406V7.45651Z" fill="#ECD979"/>
<path d="M2.77175 7.45651H1.39943V6.06521H2.77175V7.45651Z" fill="#ECD979"/>
<path d="M1.39942 7.45651H0.0270996V6.06521H1.39942V7.45651Z" fill="#ECD979"/>
<path d="M41.1964 6.06522H39.824V4.67391H41.1964V6.06522Z" fill="#ECD979"/>
<path d="M39.824 6.06522H38.4517V4.67391H39.824V6.06522Z" fill="#ECD979"/>
<path d="M38.4517 6.06522H37.0794V4.67391H38.4517V6.06522Z" fill="#ECD979"/>
<path d="M31.5901 6.06522H30.2178V4.67391H31.5901V6.06522Z" fill="#ECD979"/>
<path d="M30.2178 6.06522H28.8455V4.67391H30.2178V6.06522Z" fill="#ECD979"/>
<path d="M28.8455 6.06522H27.4732V4.67391H28.8455V6.06522Z" fill="#ECD979"/>
<path d="M24.7285 6.06522H23.3562V4.67391H24.7285V6.06522Z" fill="#ECD979"/>
<path d="M23.3562 6.06522H21.9839V4.67391H23.3562V6.06522Z" fill="#ECD979"/>
<path d="M20.6119 6.06522H19.2396V4.67391H20.6119V6.06522Z" fill="#ECD979"/>
<path d="M19.2396 6.06522H17.8673V4.67391H19.2396V6.06522Z" fill="#ECD979"/>
<path d="M15.1226 6.06522H13.7503V4.67391H15.1226V6.06522Z" fill="#ECD979"/>
<path d="M13.7503 6.06522H12.378V4.67391H13.7503V6.06522Z" fill="#ECD979"/>
<path d="M12.378 6.06522H11.0057V4.67391H12.378V6.06522Z" fill="#ECD979"/>
<path d="M5.51638 6.06522H4.14406V4.67391H5.51638V6.06522Z" fill="#ECD979"/>
<path d="M4.14406 6.06522H2.77174V4.67391H4.14406V6.06522Z" fill="#ECD979"/>
<path d="M2.77175 6.06522H1.39943V4.67391H2.77175V6.06522Z" fill="#ECD979"/>
<path d="M39.824 4.67389H38.4517V3.28259H39.824V4.67389Z" fill="#ECD979"/>
<path d="M38.4517 4.67389H37.0794V3.28259H38.4517V4.67389Z" fill="#ECD979"/>
<path d="M37.0794 4.67389H35.7071V3.28259H37.0794V4.67389Z" fill="#ECD979"/>
<path d="M26.1008 4.67389H24.7285V3.28259H26.1008V4.67389Z" fill="#ECD979"/>
<path d="M24.7285 4.67389H23.3562V3.28259H24.7285V4.67389Z" fill="#ECD979"/>
<path d="M23.3562 4.67389H21.9839V3.28259H23.3562V4.67389Z" fill="#ECD979"/>
<path d="M20.6119 4.67389H19.2396V3.28259H20.6119V4.67389Z" fill="#ECD979"/>
<path d="M19.2396 4.67389H17.8673V3.28259H19.2396V4.67389Z" fill="#ECD979"/>
<path d="M17.8673 4.67389H16.4949V3.28259H17.8673V4.67389Z" fill="#ECD979"/>
<path d="M6.88871 4.67389H5.51639V3.28259H6.88871V4.67389Z" fill="#ECD979"/>
<path d="M5.51638 4.67389H4.14406V3.28259H5.51638V4.67389Z" fill="#ECD979"/>
<path d="M4.14406 4.67389H2.77174V3.28259H4.14406V4.67389Z" fill="#ECD979"/>
<path d="M43.941 3.28259H42.5687V1.89129H43.941V3.28259Z" fill="#ECD979"/>
<path d="M38.4517 3.28259H37.0794V1.89129H38.4517V3.28259Z" fill="#ECD979"/>
<path d="M37.0794 3.28259H35.7071V1.89129H37.0794V3.28259Z" fill="#ECD979"/>
<path d="M35.7071 3.28259H34.3347V1.89129H35.7071V3.28259Z" fill="#ECD979"/>
<path d="M26.1008 3.28259H24.7285V1.89129H26.1008V3.28259Z" fill="#ECD979"/>
<path d="M24.7285 3.28259H23.3562V1.89129H24.7285V3.28259Z" fill="#ECD979"/>
<path d="M19.2396 3.28259H17.8673V1.89129H19.2396V3.28259Z" fill="#ECD979"/>
<path d="M17.8673 3.28259H16.4949V1.89129H17.8673V3.28259Z" fill="#ECD979"/>
<path d="M8.26102 3.28259H6.8887V1.89129H8.26102V3.28259Z" fill="#ECD979"/>
<path d="M6.88871 3.28259H5.51639V1.89129H6.88871V3.28259Z" fill="#ECD979"/>
<path d="M5.51638 3.28259H4.14406V1.89129H5.51638V3.28259Z" fill="#ECD979"/>
<path d="M43.941 1.8913H42.5687V0.499992H43.941V1.8913Z" fill="#ECD979"/>
<path d="M42.5687 1.8913H41.1964V0.499992H42.5687V1.8913Z" fill="#ECD979"/>
<path d="M37.0794 1.8913H35.7071V0.499992H37.0794V1.8913Z" fill="#ECD979"/>
<path d="M35.7071 1.8913H34.3347V0.499992H35.7071V1.8913Z" fill="#ECD979"/>
<path d="M34.3348 1.8913H32.9624V0.499992H34.3348V1.8913Z" fill="#ECD979"/>
<path d="M26.1008 1.8913H24.7285V0.499992H26.1008V1.8913Z" fill="#ECD979"/>
<path d="M17.8673 1.8913H16.4949V0.499992H17.8673V1.8913Z" fill="#ECD979"/>
<path d="M9.63334 1.8913H8.26102V0.499992H9.63334V1.8913Z" fill="#ECD979"/>
<path d="M8.26102 1.8913H6.8887V0.499992H8.26102V1.8913Z" fill="#ECD979"/>
<path d="M6.88871 1.8913H5.51639V0.499992H6.88871V1.8913Z" fill="#ECD979"/>
<path d="M1.39942 1.8913H0.0270996V0.499992H1.39942V1.8913Z" fill="#ECD979"/>
</svg>
